<?xml version="1.0" encoding="UTF-8" standalone="yes"?>
<svg xmlns="http://www.w3.org/2000/svg" xmlns:xlink="http://www.w3.org/1999/xlink" width="30px" height="30px" viewBox="0 0 30 30" version="1.1" fill="#000000">
  <g id="surface533219">
    <path style=" stroke:none;fill-rule:nonzero;fill:#000000;fill-opacity:1;" d="M 15 5 C 9.476562 5 5 9.476562 5 15 C 5 20.523438 9.476562 25 15 25 C 20.523438 25 25 20.523438 25 15 C 25 9.476562 20.523438 5 15 5 Z M 16 19.398438 L 16 21 L 14 21 L 14 19.402344 C 12.527344 19.128906 11.605469 18.222656 11.550781 16.902344 L 13.28125 16.902344 C 13.363281 17.597656 14.066406 18.039062 15.074219 18.039062 C 16.003906 18.039062 16.664062 17.589844 16.664062 16.941406 C 16.664062 16.398438 16.238281 16.082031 15.1875 15.855469 L 14.070312 15.621094 C 12.511719 15.292969 11.746094 14.480469 11.746094 13.175781 C 11.746094 11.863281 12.613281 10.925781 14 10.617188 L 14 9 L 16 9 L 16 10.617188 C 17.351562 10.917969 18.253906 11.839844 18.296875 13.082031 L 16.609375 13.082031 C 16.527344 12.40625 15.898438 11.953125 15.03125 11.953125 C 14.136719 11.953125 13.542969 12.367188 13.542969 13.023438 C 13.542969 13.550781 13.953125 13.851562 14.957031 14.066406 L 15.988281 14.285156 C 17.710938 14.648438 18.449219 15.390625 18.449219 16.71875 C 18.449219 18.148438 17.53125 19.105469 16 19.398438 Z M 16 19.398438 "/>
  </g>
</svg>
