<?xml version="1.0" encoding="UTF-8"?>
<svg xmlns="http://www.w3.org/2000/svg" xmlns:xlink="http://www.w3.org/1999/xlink" width="50pt" height="50pt" viewBox="0 0 50 50" version="1.1">
<g id="surface1">
<path style=" stroke:none;fill-rule:nonzero;fill:#000000;fill-opacity:1;" d="M 25 2 C 23.894531 2 23 2.894531 23 4 C 23 4.714844 23.382813 5.371094 24 5.726563 L 24 11.144531 C 22.785156 11.464844 21.785156 12.332031 21.308594 13.476563 C 17.941406 13.007813 14.570313 12.476563 11.175781 12.015625 C 11.128906 12.007813 11.082031 12 11.035156 12 C 10.597656 11.984375 10.199219 12.257813 10.054688 12.671875 L 2.054688 35.671875 C 2.019531 35.777344 2 35.886719 2 36 C 2 37.828125 3.175781 39.378906 4.820313 40.402344 C 6.46875 41.421875 8.632813 42 11 42 C 13.367188 42 15.53125 41.421875 17.175781 40.402344 C 18.824219 39.378906 20 37.828125 20 36 C 20 35.886719 19.980469 35.777344 19.945313 35.671875 L 12.484375 14.222656 C 15.328125 14.628906 18.183594 15.058594 21.046875 15.457031 C 21.28125 17.441406 22.960938 19 25 19 C 26.660156 19 28.089844 17.972656 28.691406 16.523438 C 31.667969 16.9375 34.65625 17.394531 37.65625 17.816406 L 30.054688 39.671875 C 30.019531 39.777344 30 39.886719 30 40 C 30 41.828125 31.175781 43.378906 32.824219 44.402344 C 34.46875 45.421875 36.632813 46 39 46 C 41.367188 46 43.53125 45.421875 45.175781 44.402344 C 46.824219 43.378906 48 41.828125 48 40 C 48 39.886719 47.980469 39.777344 47.945313 39.671875 L 39.945313 16.671875 C 39.816406 16.304688 39.488281 16.046875 39.105469 16.003906 C 35.734375 15.550781 32.351563 15.015625 28.953125 14.542969 C 28.761719 12.898438 27.570313 11.554688 26 11.144531 L 26 5.730469 C 26.617188 5.375 27 4.714844 27 4 C 27 2.894531 26.105469 2 25 2 Z M 25 13 C 26.117188 13 27 13.882813 27 15 C 27 16.117188 26.117188 17 25 17 C 23.882813 17 23 16.117188 23 15 C 23 13.882813 23.882813 13 25 13 Z M 11 16.046875 L 17.59375 35 L 4.40625 35 Z M 39 20.046875 L 45.59375 39 L 32.40625 39 Z M 4.253906 37 L 17.746094 37 C 17.472656 37.613281 16.941406 38.195313 16.125 38.703125 C 14.867188 39.480469 13.035156 40 11 40 C 8.964844 40 7.132813 39.480469 5.875 38.703125 C 5.058594 38.195313 4.527344 37.613281 4.253906 37 Z M 32.253906 41 L 45.746094 41 C 45.472656 41.613281 44.941406 42.195313 44.125 42.703125 C 42.867188 43.480469 41.035156 44 39 44 C 36.964844 44 35.132813 43.480469 33.875 42.703125 C 33.058594 42.195313 32.527344 41.613281 32.253906 41 Z "/>
</g>
</svg>
