<?xml version="1.0" encoding="UTF-8" standalone="yes"?>
<svg xmlns="http://www.w3.org/2000/svg" xmlns:xlink="http://www.w3.org/1999/xlink" width="30px" height="30px" viewBox="0 0 30 30" version="1.1" fill="#000000">
  <g id="surface95041">
    <path style=" stroke:none;fill-rule:nonzero;fill:#000000;fill-opacity:1;" d="M 6 4 C 5.449219 4 5 4.449219 5 5 L 5 6 L 4 6 C 3.640625 5.996094 3.304688 6.183594 3.121094 6.496094 C 2.941406 6.808594 2.941406 7.191406 3.121094 7.503906 C 3.304688 7.816406 3.640625 8.003906 4 8 L 5 8 L 5 9 C 5 9.550781 5.449219 10 6 10 L 7 10 C 7.550781 10 8 9.550781 8 9 L 8 8 L 22 8 L 22 9 C 22 9.550781 22.449219 10 23 10 L 24 10 C 24.550781 10 25 9.550781 25 9 L 25 8 L 26 8 C 26.359375 8.003906 26.695312 7.816406 26.878906 7.503906 C 27.058594 7.191406 27.058594 6.808594 26.878906 6.496094 C 26.695312 6.183594 26.359375 5.996094 26 6 L 25 6 L 25 5 C 25 4.449219 24.550781 4 24 4 L 23 4 C 22.449219 4 22 4.449219 22 5 L 22 6 L 8 6 L 8 5 C 8 4.449219 7.550781 4 7 4 Z M 14.984375 11.984375 C 14.9375 11.988281 14.886719 11.992188 14.839844 12 L 13 12 C 11.707031 12 10.605469 12.84375 10.1875 14 L 8 14 L 8 13 C 8 12.449219 7.550781 12 7 12 L 6 12 C 5.449219 12 5 12.449219 5 13 L 5 14 L 4 14 C 3.640625 13.996094 3.304688 14.183594 3.121094 14.496094 C 2.941406 14.808594 2.941406 15.191406 3.121094 15.503906 C 3.304688 15.816406 3.640625 16.003906 4 16 L 5 16 L 5 17 C 5 17.550781 5.449219 18 6 18 L 7 18 C 7.550781 18 8 17.550781 8 17 L 8 16 L 10.417969 16 C 10.859375 17.105469 11.742188 18 13 18 L 14.832031 18 C 14.941406 18.019531 15.050781 18.019531 15.15625 18 L 17 18 C 18.257812 18 19.140625 17.105469 19.582031 16 L 22 16 L 22 17 C 22 17.550781 22.449219 18 23 18 L 24 18 C 24.550781 18 25 17.550781 25 17 L 25 16 L 26 16 C 26.359375 16.003906 26.695312 15.816406 26.878906 15.503906 C 27.058594 15.191406 27.058594 14.808594 26.878906 14.496094 C 26.695312 14.183594 26.359375 13.996094 26 14 L 25 14 L 25 13 C 25 12.449219 24.550781 12 24 12 L 23 12 C 22.449219 12 22 12.449219 22 13 L 22 14 L 19.8125 14 C 19.394531 12.84375 18.292969 12 17 12 L 15.15625 12 C 15.097656 11.992188 15.042969 11.984375 14.984375 11.984375 Z M 13 14 L 14 14 L 14 16 L 13 16 C 12.457031 16 12.042969 15.59375 12.011719 15.058594 C 12.015625 15.019531 12.015625 14.980469 12.011719 14.941406 C 12.042969 14.40625 12.457031 14 13 14 Z M 16 14 L 17 14 C 17.542969 14 17.957031 14.40625 17.988281 14.941406 C 17.984375 14.980469 17.984375 15.019531 17.988281 15.058594 C 17.957031 15.59375 17.542969 16 17 16 L 16 16 Z M 6 20 C 5.449219 20 5 20.449219 5 21 L 5 22 L 4 22 C 3.640625 21.996094 3.304688 22.183594 3.121094 22.496094 C 2.941406 22.808594 2.941406 23.191406 3.121094 23.503906 C 3.304688 23.816406 3.640625 24.003906 4 24 L 5 24 L 5 25 C 5 25.550781 5.449219 26 6 26 L 7 26 C 7.550781 26 8 25.550781 8 25 L 8 24 L 9 24 C 9.167969 24 9.554688 24.144531 10.050781 24.394531 C 10.550781 24.644531 11.167969 25 12 25 C 12.832031 25 13.449219 24.644531 13.949219 24.394531 C 14.449219 24.144531 14.832031 24 15 24 C 15.167969 24 15.550781 24.144531 16.050781 24.394531 C 16.550781 24.644531 17.167969 25 18 25 C 18.832031 25 19.449219 24.644531 19.949219 24.394531 C 20.449219 24.144531 20.832031 24 21 24 L 22 24 L 22 25 C 22 25.550781 22.449219 26 23 26 L 24 26 C 24.550781 26 25 25.550781 25 25 L 25 24 L 26 24 C 26.359375 24.003906 26.695312 23.816406 26.878906 23.503906 C 27.058594 23.191406 27.058594 22.808594 26.878906 22.496094 C 26.695312 22.183594 26.359375 21.996094 26 22 L 25 22 L 25 21 C 25 20.449219 24.550781 20 24 20 L 23 20 C 22.449219 20 22 20.449219 22 21 L 22 22 L 21 22 C 20.167969 22 19.550781 22.355469 19.050781 22.605469 C 18.550781 22.855469 18.167969 23 18 23 C 17.832031 23 17.449219 22.855469 16.949219 22.605469 C 16.449219 22.355469 15.832031 22 15 22 C 14.167969 22 13.550781 22.355469 13.050781 22.605469 C 12.550781 22.855469 12.167969 23 12 23 C 11.832031 23 11.449219 22.855469 10.949219 22.605469 C 10.449219 22.355469 9.832031 22 9 22 L 8 22 L 8 21 C 8 20.449219 7.550781 20 7 20 Z M 6 20 "/>
  </g>
</svg>
