<?xml version="1.0" encoding="UTF-8" standalone="yes"?>
<svg xmlns="http://www.w3.org/2000/svg" xmlns:xlink="http://www.w3.org/1999/xlink" width="30px" height="30px" viewBox="0 0 30 30" version="1.1" fill="#000000">
  <g id="surface95552">
    <path style=" stroke:none;fill-rule:nonzero;fill:#000000;fill-opacity:1;" d="M 26.242188 6.03125 L 18.324219 4.035156 C 18.15625 3.996094 17.976562 3.996094 17.8125 4.042969 L 11.003906 5.960938 L 4.273438 4.039062 C 3.972656 3.953125 3.648438 4.011719 3.398438 4.203125 C 3.148438 4.390625 3 4.6875 3 5 L 3 23 C 3 23.445312 3.296875 23.839844 3.726562 23.960938 L 10.726562 25.960938 C 10.90625 26.011719 11.09375 26.011719 11.273438 25.960938 L 18.015625 24.035156 L 25.757812 25.96875 C 25.835938 25.988281 25.917969 26 26 26 C 26.222656 26 26.4375 25.925781 26.613281 25.789062 C 26.859375 25.597656 27 25.308594 27 25 L 27 7 C 27 6.542969 26.6875 6.140625 26.242188 6.03125 Z M 11 9 C 11.550781 9 12 9.449219 12 10 C 12 10.550781 11.550781 11 11 11 C 10.449219 11 10 10.550781 10 10 C 10 9.449219 10.449219 9 11 9 Z M 7 8 C 7.550781 8 8 8.449219 8 9 C 8 9.550781 7.550781 10 7 10 C 6.449219 10 6 9.550781 6 9 C 6 8.449219 6.449219 8 7 8 Z M 12.207031 20.792969 C 12.597656 21.183594 12.597656 21.816406 12.207031 22.207031 C 12.011719 22.402344 11.757812 22.5 11.5 22.5 C 11.242188 22.5 10.988281 22.402344 10.792969 22.207031 L 9 20.414062 L 7.207031 22.207031 C 7.011719 22.402344 6.757812 22.5 6.5 22.5 C 6.242188 22.5 5.988281 22.402344 5.792969 22.207031 C 5.402344 21.816406 5.402344 21.183594 5.792969 20.792969 L 7.585938 19 L 5.792969 17.207031 C 5.402344 16.816406 5.402344 16.183594 5.792969 15.792969 C 6.183594 15.402344 6.816406 15.402344 7.207031 15.792969 L 9 17.585938 L 10.792969 15.792969 C 11.183594 15.402344 11.816406 15.402344 12.207031 15.792969 C 12.597656 16.183594 12.597656 16.816406 12.207031 17.207031 L 10.414062 19 Z M 15 20 C 14.449219 20 14 19.550781 14 19 C 14 18.449219 14.449219 18 15 18 C 15.550781 18 16 18.449219 16 19 C 16 19.550781 15.550781 20 15 20 Z M 15 10 C 14.449219 10 14 9.550781 14 9 C 14 8.449219 14.449219 8 15 8 C 15.550781 8 16 8.449219 16 9 C 16 9.550781 15.550781 10 15 10 Z M 19 21 C 18.449219 21 18 20.550781 18 20 C 18 19.449219 18.449219 19 19 19 C 19.550781 19 20 19.449219 20 20 C 20 20.550781 19.550781 21 19 21 Z M 19 9 C 18.449219 9 18 8.550781 18 8 C 18 7.449219 18.449219 7 19 7 C 19.550781 7 20 7.449219 20 8 C 20 8.550781 19.550781 9 19 9 Z M 23 22 C 22.449219 22 22 21.550781 22 21 C 22 20.449219 22.449219 20 23 20 C 23.550781 20 24 20.449219 24 21 C 24 21.550781 23.550781 22 23 22 Z M 23 18 C 22.449219 18 22 17.550781 22 17 C 22 16.449219 22.449219 16 23 16 C 23.550781 16 24 16.449219 24 17 C 24 17.550781 23.550781 18 23 18 Z M 23 14 C 22.449219 14 22 13.550781 22 13 C 22 12.449219 22.449219 12 23 12 C 23.550781 12 24 12.449219 24 13 C 24 13.550781 23.550781 14 23 14 Z M 23 10 C 22.449219 10 22 9.550781 22 9 C 22 8.449219 22.449219 8 23 8 C 23.550781 8 24 8.449219 24 9 C 24 9.550781 23.550781 10 23 10 Z M 23 10 "/>
  </g>
</svg>
