<?xml version="1.0" encoding="UTF-8"?>
<svg xmlns="http://www.w3.org/2000/svg" xmlns:xlink="http://www.w3.org/1999/xlink" width="100pt" height="100pt" viewBox="0 0 100 100" version="1.1">
<g id="surface1">
<path style=" stroke:none;fill-rule:nonzero;fill:#000000;fill-opacity:1;" d="M 34.375 19.925781 C 34.246094 19.910156 34.109375 19.914063 33.976563 19.949219 L 18.707031 23.949219 C 18.265625 24.0625 17.960938 24.464844 17.960938 24.917969 L 17.960938 77.082031 C 17.960938 77.394531 18.105469 77.6875 18.347656 77.875 C 18.527344 78.011719 18.742188 78.082031 18.960938 78.082031 C 19.046875 78.082031 19.128906 78.074219 19.214844 78.050781 L 34.453125 74.0625 L 49.695313 78.050781 C 49.78125 78.074219 49.867188 78.082031 49.949219 78.082031 C 49.980469 78.082031 50.011719 78.070313 50.042969 78.066406 C 50.074219 78.070313 50.105469 78.082031 50.136719 78.082031 C 50.222656 78.082031 50.304688 78.074219 50.390625 78.050781 L 65.546875 74.082031 L 80.707031 78.050781 C 80.789063 78.074219 80.875 78.082031 80.960938 78.082031 C 81.179688 78.082031 81.394531 78.011719 81.574219 77.875 C 81.816406 77.6875 81.964844 77.390625 81.964844 77.082031 L 81.964844 24.917969 C 81.964844 24.460938 81.65625 24.0625 81.214844 23.949219 L 65.949219 19.949219 C 65.8125 19.914063 65.679688 19.910156 65.550781 19.925781 C 65.421875 19.910156 65.285156 19.914063 65.152344 19.949219 L 50.042969 23.90625 L 34.9375 19.949219 C 34.769531 19.90625 34.609375 19.921875 34.453125 19.957031 C 34.425781 19.949219 34.402344 19.933594 34.375 19.925781 Z M 65.949219 22.019531 L 79.960938 25.6875 L 79.960938 75.785156 L 65.960938 72.121094 L 65.960938 22.074219 C 65.960938 22.054688 65.953125 22.039063 65.949219 22.019531 Z M 33.960938 22.019531 L 33.960938 72.121094 L 19.964844 75.789063 L 19.964844 25.6875 Z M 34.960938 22.027344 L 48.960938 25.691406 L 48.960938 75.792969 L 34.960938 72.121094 Z M 64.964844 22.066406 C 64.960938 22.070313 64.960938 22.070313 64.960938 22.074219 L 64.960938 72.167969 L 50.042969 76.074219 L 49.960938 76.050781 L 49.960938 25.917969 C 49.988281 25.914063 50.015625 25.90625 50.042969 25.902344 C 50.074219 25.90625 50.105469 25.917969 50.136719 25.917969 C 50.222656 25.917969 50.304688 25.90625 50.390625 25.886719 Z M 71.152344 24.972656 C 70.957031 25.003906 70.792969 25.148438 70.742188 25.347656 C 70.675781 25.613281 70.835938 25.886719 71.105469 25.953125 L 77.960938 27.703125 L 77.960938 33.074219 C 77.960938 33.351563 78.183594 33.574219 78.460938 33.574219 C 78.738281 33.574219 78.960938 33.351563 78.960938 33.078125 L 78.960938 27.316406 C 78.960938 27.089844 78.808594 26.890625 78.585938 26.832031 L 71.347656 24.984375 C 71.28125 24.96875 71.214844 24.964844 71.152344 24.972656 Z M 51.460938 27.574219 C 51.183594 27.574219 50.960938 27.796875 50.960938 28.074219 L 50.960938 37.074219 C 50.960938 37.351563 51.183594 37.574219 51.460938 37.574219 C 51.738281 37.574219 51.960938 37.351563 51.960938 37.074219 L 51.960938 28.074219 C 51.960938 27.796875 51.738281 27.574219 51.460938 27.574219 Z M 78.460938 35.574219 C 78.183594 35.574219 77.960938 35.796875 77.960938 36.074219 L 77.960938 39.074219 C 77.960938 39.351563 78.183594 39.574219 78.460938 39.574219 C 78.738281 39.574219 78.960938 39.351563 78.960938 39.074219 L 78.960938 36.074219 C 78.960938 35.796875 78.738281 35.574219 78.460938 35.574219 Z M 51.460938 38.574219 C 51.183594 38.574219 50.960938 38.796875 50.960938 39.074219 L 50.960938 42.074219 C 50.960938 42.351563 51.183594 42.574219 51.460938 42.574219 C 51.738281 42.574219 51.960938 42.351563 51.960938 42.074219 L 51.960938 39.074219 C 51.960938 38.796875 51.738281 38.574219 51.460938 38.574219 Z M 21.460938 58.574219 C 21.183594 58.574219 20.960938 58.796875 20.960938 59.074219 L 20.960938 68.074219 C 20.960938 68.351563 21.183594 68.574219 21.460938 68.574219 C 21.738281 68.574219 21.960938 68.351563 21.960938 68.074219 L 21.960938 59.074219 C 21.960938 58.796875 21.738281 58.574219 21.460938 58.574219 Z M 21.460938 69.574219 C 21.183594 69.574219 20.960938 69.796875 20.960938 70.074219 L 20.960938 73.074219 C 20.960938 73.351563 21.183594 73.574219 21.460938 73.574219 C 21.738281 73.574219 21.960938 73.351563 21.960938 73.074219 L 21.960938 70.074219 C 21.960938 69.796875 21.738281 69.574219 21.460938 69.574219 Z "/>
</g>
</svg>
