<?xml version="1.0" encoding="UTF-8" standalone="yes"?>
<svg xmlns="http://www.w3.org/2000/svg" xmlns:xlink="http://www.w3.org/1999/xlink" width="50px" height="50px" viewBox="0 0 50 50" version="1.1" fill="#000000">
  <g id="surface94724">
    <path style=" stroke:none;fill-rule:nonzero;fill:#000000;fill-opacity:1;" d="M 25 2 C 22.144531 2 19.335938 3.117188 17.769531 4.710938 C 16.824219 5.675781 16.210938 6.6875 15.808594 7.664062 C 14.664062 8.097656 12.242188 9.332031 11.578125 12.214844 C 10.398438 12.832031 9.546875 13.875 9.226562 15.105469 C 8.898438 16.363281 9.074219 17.746094 9.632812 19.015625 C 8.878906 20.996094 8.835938 22.632812 9.25 23.851562 C 9.617188 24.933594 10.167969 25.535156 10.558594 26.050781 C 10.070312 27.035156 9.84375 28.113281 9.929688 29.160156 C 10.027344 30.28125 10.414062 31.324219 10.984375 32.203125 C 10.480469 34.835938 11.457031 37.207031 13.433594 38.21875 C 13.34375 40.867188 15.03125 42.933594 17.140625 43.703125 C 17.277344 44.425781 17.566406 45.179688 18.15625 45.972656 C 18.941406 47.019531 20.257812 48 22.011719 48 C 23.207031 48 24.121094 47.707031 24.738281 47.390625 C 24.898438 47.308594 24.875 47.289062 25 47.203125 C 25.125 47.289062 25.101562 47.308594 25.261719 47.390625 C 25.878906 47.707031 26.792969 48 27.988281 48 C 29.742188 48 31.058594 47.019531 31.84375 45.972656 C 32.433594 45.179688 32.722656 44.425781 32.859375 43.703125 C 34.96875 42.933594 36.65625 40.867188 36.566406 38.21875 C 38.542969 37.207031 39.519531 34.835938 39.015625 32.203125 C 39.585938 31.324219 39.972656 30.28125 40.066406 29.160156 C 40.15625 28.113281 39.929688 27.035156 39.441406 26.050781 C 39.832031 25.535156 40.382812 24.929688 40.75 23.847656 C 41.164062 22.632812 41.121094 20.996094 40.367188 19.015625 C 40.925781 17.746094 41.101562 16.363281 40.773438 15.105469 C 40.453125 13.875 39.601562 12.832031 38.421875 12.214844 C 37.757812 9.332031 35.335938 8.097656 34.191406 7.664062 C 33.789062 6.683594 33.175781 5.675781 32.230469 4.710938 C 30.664062 3.117188 27.855469 2 25 2 Z M 25 4 C 27.28125 4 29.816406 5.105469 30.800781 6.109375 C 32.378906 7.714844 32.761719 9.308594 32.929688 10.792969 C 33.011719 11.535156 33.027344 12.238281 33.105469 12.90625 C 33.179688 13.574219 33.304688 14.289062 33.878906 14.863281 C 35.015625 16.003906 35 16.617188 35 18.226562 C 35 19.0625 34.824219 19.445312 34.566406 20.109375 C 34.339844 20.695312 34.121094 21.578125 34.0625 22.675781 C 33.101562 24.121094 32.953125 25.445312 32.839844 26.257812 C 32.753906 26.84375 32.59375 27.191406 32.207031 27.5625 C 31.820312 27.117188 31.375 26.660156 30.46875 26.277344 C 29.996094 26.078125 30.105469 26.074219 29.96875 25.574219 C 29.828125 25.074219 29.453125 24.050781 28.414062 23.578125 C 28.164062 23.464844 27.882812 23.457031 27.628906 23.558594 C 27.375 23.660156 27.175781 23.859375 27.074219 24.113281 C 27.074219 24.113281 27.039062 24.238281 26.753906 24.480469 C 26.46875 24.71875 25.984375 25 25 25 C 24.015625 25 23.53125 24.71875 23.246094 24.480469 C 22.960938 24.238281 22.925781 24.113281 22.925781 24.113281 C 22.824219 23.859375 22.625 23.660156 22.371094 23.558594 C 22.117188 23.457031 21.835938 23.464844 21.585938 23.578125 C 20.546875 24.050781 20.171875 25.074219 20.03125 25.574219 C 19.894531 26.074219 20.003906 26.078125 19.53125 26.277344 C 18.625 26.660156 18.179688 27.117188 17.792969 27.5625 C 17.40625 27.191406 17.246094 26.84375 17.160156 26.257812 C 17.046875 25.445312 16.898438 24.121094 15.9375 22.675781 C 15.878906 21.578125 15.660156 20.695312 15.433594 20.109375 C 15.175781 19.445312 15 19.0625 15 18.226562 C 15 16.617188 14.984375 16.003906 16.121094 14.863281 C 16.695312 14.289062 16.820312 13.578125 16.894531 12.90625 C 16.972656 12.238281 16.988281 11.535156 17.070312 10.792969 C 17.238281 9.308594 17.621094 7.714844 19.199219 6.109375 C 20.183594 5.105469 22.71875 4 25 4 Z M 20.109375 13.566406 C 19.890625 13.578125 19.691406 13.609375 19.507812 13.65625 C 18.78125 13.835938 18.292969 14.292969 18.292969 14.292969 C 18.03125 14.542969 17.925781 14.917969 18.019531 15.265625 C 18.109375 15.617188 18.382812 15.890625 18.734375 15.980469 C 19.082031 16.074219 19.457031 15.96875 19.707031 15.707031 C 19.707031 15.707031 19.71875 15.664062 19.992188 15.59375 C 20.265625 15.527344 20.730469 15.484375 21.550781 15.894531 C 22.046875 16.140625 22.648438 15.941406 22.894531 15.449219 C 23.140625 14.953125 22.941406 14.351562 22.449219 14.105469 C 21.859375 13.8125 21.304688 13.652344 20.808594 13.59375 C 20.558594 13.5625 20.328125 13.554688 20.109375 13.566406 Z M 29.890625 13.566406 C 29.671875 13.554688 29.441406 13.5625 29.191406 13.59375 C 28.695312 13.652344 28.140625 13.8125 27.550781 14.105469 C 27.058594 14.351562 26.859375 14.953125 27.105469 15.449219 C 27.351562 15.941406 27.953125 16.140625 28.449219 15.894531 C 29.269531 15.484375 29.734375 15.527344 30.007812 15.59375 C 30.28125 15.664062 30.292969 15.707031 30.292969 15.707031 C 30.542969 15.96875 30.917969 16.074219 31.265625 15.980469 C 31.617188 15.890625 31.890625 15.617188 31.980469 15.265625 C 32.074219 14.917969 31.96875 14.542969 31.707031 14.292969 C 31.707031 14.292969 31.21875 13.835938 30.492188 13.65625 C 30.308594 13.609375 30.109375 13.578125 29.890625 13.566406 Z M 20.375 16.945312 C 19.738281 16.945312 19.21875 17.464844 19.21875 18.101562 C 19.21875 18.738281 19.738281 19.257812 20.375 19.257812 C 21.015625 19.257812 21.53125 18.738281 21.53125 18.101562 C 21.53125 17.464844 21.015625 16.945312 20.375 16.945312 Z M 30 17 C 29.449219 17 29 17.449219 29 18 C 29 18.550781 29.449219 19 30 19 C 30.550781 19 31 18.550781 31 18 C 31 17.449219 30.550781 17 30 17 Z M 25 29 C 27.347656 29 28.574219 30.160156 28.707031 30.292969 C 29.097656 30.683594 29.097656 31.316406 28.707031 31.707031 C 28.511719 31.902344 28.257812 32 28 32 C 27.742188 32 27.488281 31.902344 27.292969 31.707031 C 27.273438 31.6875 26.519531 31 25 31 C 23.480469 31 22.726562 31.6875 22.695312 31.71875 C 22.296875 32.089844 21.667969 32.082031 21.285156 31.6875 C 20.90625 31.296875 20.90625 30.679688 21.292969 30.296875 C 21.425781 30.160156 22.652344 29 25 29 Z M 25 29 "/>
  </g>
</svg>
