<?xml version="1.0" encoding="UTF-8"?>
<svg xmlns="http://www.w3.org/2000/svg" xmlns:xlink="http://www.w3.org/1999/xlink" width="50pt" height="50pt" viewBox="0 0 50 50" version="1.1">
<g id="surface1">
<path style=" stroke:none;fill-rule:nonzero;fill:#000000;fill-opacity:1;" d="M 25 2 C 22.144531 2 19.335938 3.117188 17.769531 4.710938 C 16.824219 5.675781 16.210938 6.6875 15.808594 7.664063 C 14.664063 8.097656 12.242188 9.332031 11.578125 12.214844 C 10.398438 12.832031 9.546875 13.875 9.226563 15.105469 C 8.898438 16.363281 9.074219 17.746094 9.632813 19.015625 C 8.878906 20.996094 8.835938 22.632813 9.25 23.851563 C 9.617188 24.933594 10.167969 25.535156 10.558594 26.050781 C 10.070313 27.035156 9.84375 28.113281 9.929688 29.160156 C 10.027344 30.28125 10.414063 31.324219 10.984375 32.203125 C 10.480469 34.835938 11.457031 37.207031 13.433594 38.21875 C 13.34375 40.867188 15.03125 42.933594 17.140625 43.703125 C 17.277344 44.425781 17.566406 45.179688 18.15625 45.972656 C 18.941406 47.019531 20.257813 48 22.011719 48 C 23.207031 48 24.121094 47.707031 24.738281 47.390625 C 24.898438 47.308594 24.875 47.289063 25 47.203125 C 25.125 47.289063 25.101563 47.308594 25.261719 47.390625 C 25.878906 47.707031 26.792969 48 27.988281 48 C 29.742188 48 31.058594 47.019531 31.84375 45.972656 C 32.433594 45.179688 32.722656 44.425781 32.859375 43.703125 C 34.96875 42.933594 36.65625 40.867188 36.566406 38.21875 C 38.542969 37.207031 39.519531 34.835938 39.015625 32.203125 C 39.585938 31.324219 39.972656 30.28125 40.066406 29.160156 C 40.15625 28.113281 39.929688 27.035156 39.441406 26.050781 C 39.832031 25.535156 40.382813 24.929688 40.75 23.847656 C 41.164063 22.632813 41.121094 20.996094 40.367188 19.015625 C 40.925781 17.746094 41.101563 16.363281 40.773438 15.105469 C 40.453125 13.875 39.601563 12.832031 38.421875 12.214844 C 37.757813 9.332031 35.335938 8.097656 34.191406 7.664063 C 33.789063 6.683594 33.175781 5.675781 32.230469 4.710938 C 30.664063 3.117188 27.855469 2 25 2 Z M 25 4 C 27.28125 4 29.816406 5.105469 30.800781 6.109375 C 32.378906 7.714844 32.761719 9.308594 32.929688 10.792969 C 33.011719 11.535156 33.027344 12.238281 33.105469 12.90625 C 33.179688 13.574219 33.304688 14.289063 33.878906 14.863281 C 35.015625 16.003906 35 16.617188 35 18.226563 C 35 19.0625 34.824219 19.445313 34.566406 20.109375 C 34.339844 20.695313 34.121094 21.578125 34.0625 22.675781 C 33.101563 24.121094 32.953125 25.445313 32.839844 26.257813 C 32.753906 26.84375 32.59375 27.191406 32.207031 27.5625 C 31.820313 27.117188 31.375 26.660156 30.46875 26.277344 C 29.996094 26.078125 30.105469 26.074219 29.96875 25.574219 C 29.828125 25.074219 29.453125 24.050781 28.414063 23.578125 C 28.164063 23.464844 27.882813 23.457031 27.628906 23.558594 C 27.375 23.660156 27.175781 23.859375 27.074219 24.113281 C 27.074219 24.113281 27.039063 24.238281 26.753906 24.480469 C 26.46875 24.71875 25.984375 25 25 25 C 24.015625 25 23.53125 24.71875 23.246094 24.480469 C 22.960938 24.238281 22.925781 24.113281 22.925781 24.113281 C 22.824219 23.859375 22.625 23.660156 22.371094 23.558594 C 22.117188 23.457031 21.835938 23.464844 21.585938 23.578125 C 20.546875 24.050781 20.171875 25.074219 20.03125 25.574219 C 19.894531 26.074219 20.003906 26.078125 19.53125 26.277344 C 18.625 26.660156 18.179688 27.117188 17.792969 27.5625 C 17.40625 27.191406 17.246094 26.84375 17.160156 26.257813 C 17.046875 25.445313 16.898438 24.121094 15.9375 22.675781 C 15.878906 21.578125 15.660156 20.695313 15.433594 20.109375 C 15.175781 19.445313 15 19.0625 15 18.226563 C 15 16.617188 14.984375 16.003906 16.121094 14.863281 C 16.695313 14.289063 16.820313 13.578125 16.894531 12.90625 C 16.972656 12.238281 16.988281 11.535156 17.070313 10.792969 C 17.238281 9.308594 17.621094 7.714844 19.199219 6.109375 C 20.183594 5.105469 22.71875 4 25 4 Z M 15.15625 10.136719 C 15.136719 10.277344 15.097656 10.433594 15.082031 10.570313 C 14.988281 11.417969 14.96875 12.15625 14.90625 12.675781 C 14.847656 13.199219 14.726563 13.429688 14.707031 13.453125 C 13.210938 14.949219 13 16.539063 13 18.226563 C 13 19.394531 13.324219 20.199219 13.566406 20.828125 C 13.8125 21.460938 14 21.945313 14 23 C 14 23.214844 14.070313 23.425781 14.199219 23.597656 C 15.0625 24.757813 15.035156 25.496094 15.183594 26.535156 C 15.328125 27.578125 15.847656 28.921875 17.503906 29.867188 C 17.800781 30.035156 18.160156 30.042969 18.464844 29.882813 C 18.765625 29.726563 18.964844 29.425781 18.996094 29.085938 C 18.996094 29.082031 19.003906 29.046875 19.058594 28.972656 C 19.164063 28.8125 19.46875 28.476563 20.3125 28.121094 C 21.386719 27.664063 21.8125 26.640625 21.957031 26.113281 C 21.976563 26.058594 21.996094 26.082031 22.007813 26.035156 C 22.628906 26.542969 23.621094 27 25 27 C 26.378906 27 27.371094 26.542969 27.992188 26.035156 C 28.003906 26.082031 28.023438 26.058594 28.042969 26.113281 C 28.1875 26.640625 28.613281 27.664063 29.6875 28.121094 C 30.53125 28.476563 30.835938 28.8125 30.941406 28.972656 C 30.996094 29.046875 31.003906 29.082031 31.003906 29.089844 C 31.035156 29.425781 31.234375 29.726563 31.535156 29.886719 C 31.839844 30.042969 32.199219 30.035156 32.496094 29.867188 C 34.152344 28.921875 34.671875 27.578125 34.816406 26.535156 C 34.964844 25.496094 34.9375 24.757813 35.800781 23.597656 C 35.929688 23.425781 36 23.214844 36 23 C 36 21.945313 36.1875 21.460938 36.433594 20.828125 C 36.675781 20.199219 37 19.394531 37 18.226563 C 37 16.539063 36.789063 14.949219 35.292969 13.453125 C 35.273438 13.429688 35.152344 13.199219 35.09375 12.675781 C 35.03125 12.15625 35.011719 11.417969 34.917969 10.570313 C 34.902344 10.433594 34.863281 10.277344 34.84375 10.136719 C 35.628906 10.65625 36.433594 11.519531 36.628906 12.964844 L 36.710938 13.566406 L 37.285156 13.773438 C 38.089844 14.058594 38.605469 14.710938 38.839844 15.605469 C 39.070313 16.5 38.960938 17.597656 38.460938 18.527344 L 38.230469 18.953125 L 38.421875 19.394531 C 39.21875 21.25 39.144531 22.359375 38.855469 23.207031 C 38.566406 24.058594 38 24.65625 37.5 25.402344 L 37.121094 25.972656 L 37.515625 26.535156 C 37.96875 27.171875 38.15625 28.074219 38.078125 28.996094 C 37.996094 29.914063 37.644531 30.828125 37.210938 31.386719 L 36.90625 31.773438 L 37.03125 32.25 C 37.644531 34.632813 36.765625 36.253906 35.324219 36.683594 L 34.476563 36.933594 L 34.621094 37.804688 C 34.988281 40.007813 33.355469 41.679688 31.785156 42.023438 L 31 42.195313 L 31 43 C 31 43.09375 30.765625 44.074219 30.238281 44.777344 C 29.714844 45.480469 29.027344 46 27.988281 46 C 27.113281 46 26.535156 45.792969 26.171875 45.609375 C 25.8125 45.425781 25.734375 45.324219 25.734375 45.324219 L 25 44.519531 L 24.265625 45.324219 C 24.265625 45.324219 24.1875 45.425781 23.828125 45.609375 C 23.464844 45.792969 22.886719 46 22.011719 46 C 20.972656 46 20.285156 45.480469 19.761719 44.777344 C 19.234375 44.074219 19 43.09375 19 43 L 19 42.195313 L 18.214844 42.023438 C 16.644531 41.679688 15.011719 40.007813 15.378906 37.804688 L 15.523438 36.933594 L 14.675781 36.683594 C 13.234375 36.253906 12.355469 34.632813 12.96875 32.25 L 13.09375 31.773438 L 12.789063 31.386719 C 12.355469 30.828125 12.003906 29.914063 11.921875 28.996094 C 11.84375 28.074219 12.03125 27.171875 12.484375 26.535156 L 12.878906 25.972656 L 12.5 25.402344 C 12 24.660156 11.433594 24.058594 11.144531 23.207031 C 10.855469 22.359375 10.78125 21.25 11.578125 19.394531 L 11.769531 18.953125 L 11.539063 18.527344 C 11.039063 17.597656 10.929688 16.5 11.160156 15.605469 C 11.394531 14.710938 11.910156 14.058594 12.714844 13.773438 L 13.289063 13.566406 L 13.371094 12.964844 C 13.566406 11.519531 14.371094 10.65625 15.15625 10.136719 Z M 20.109375 13.566406 C 19.890625 13.578125 19.691406 13.609375 19.507813 13.65625 C 18.78125 13.835938 18.292969 14.292969 18.292969 14.292969 C 18.03125 14.542969 17.925781 14.917969 18.019531 15.265625 C 18.109375 15.617188 18.382813 15.890625 18.734375 15.980469 C 19.082031 16.074219 19.457031 15.96875 19.707031 15.707031 C 19.707031 15.707031 19.71875 15.664063 19.992188 15.59375 C 20.265625 15.527344 20.730469 15.484375 21.550781 15.894531 C 22.046875 16.140625 22.648438 15.941406 22.894531 15.449219 C 23.140625 14.953125 22.941406 14.351563 22.449219 14.105469 C 21.859375 13.8125 21.304688 13.652344 20.808594 13.59375 C 20.558594 13.5625 20.328125 13.554688 20.109375 13.566406 Z M 29.890625 13.566406 C 29.671875 13.554688 29.441406 13.5625 29.191406 13.59375 C 28.695313 13.652344 28.140625 13.8125 27.550781 14.105469 C 27.058594 14.351563 26.859375 14.953125 27.105469 15.449219 C 27.351563 15.941406 27.953125 16.140625 28.449219 15.894531 C 29.269531 15.484375 29.734375 15.527344 30.007813 15.59375 C 30.28125 15.664063 30.292969 15.707031 30.292969 15.707031 C 30.542969 15.96875 30.917969 16.074219 31.265625 15.980469 C 31.617188 15.890625 31.890625 15.617188 31.980469 15.265625 C 32.074219 14.917969 31.96875 14.542969 31.707031 14.292969 C 31.707031 14.292969 31.21875 13.835938 30.492188 13.65625 C 30.308594 13.609375 30.109375 13.578125 29.890625 13.566406 Z M 20.375 16.945313 C 19.738281 16.945313 19.21875 17.464844 19.21875 18.101563 C 19.21875 18.738281 19.738281 19.257813 20.375 19.257813 C 21.015625 19.257813 21.53125 18.738281 21.53125 18.101563 C 21.53125 17.464844 21.015625 16.945313 20.375 16.945313 Z M 30 17 C 29.449219 17 29 17.449219 29 18 C 29 18.550781 29.449219 19 30 19 C 30.550781 19 31 18.550781 31 18 C 31 17.449219 30.550781 17 30 17 Z M 25 29 C 23.832031 29 22.921875 29.296875 22.300781 29.605469 C 21.683594 29.914063 21.292969 30.292969 21.292969 30.292969 C 21.03125 30.542969 20.925781 30.917969 21.019531 31.265625 C 21.109375 31.617188 21.382813 31.890625 21.734375 31.980469 C 22.082031 32.074219 22.457031 31.96875 22.707031 31.707031 C 22.707031 31.707031 22.816406 31.585938 23.199219 31.394531 C 23.578125 31.203125 24.167969 31 25 31 C 25.832031 31 26.421875 31.203125 26.800781 31.394531 C 27.183594 31.585938 27.292969 31.707031 27.292969 31.707031 C 27.542969 31.96875 27.917969 32.074219 28.265625 31.980469 C 28.617188 31.890625 28.890625 31.617188 28.980469 31.265625 C 29.074219 30.917969 28.96875 30.542969 28.707031 30.292969 C 28.707031 30.292969 28.316406 29.914063 27.699219 29.605469 C 27.078125 29.296875 26.167969 29 25 29 Z "/>
</g>
</svg>
