<?xml version="1.0" encoding="UTF-8" standalone="yes"?>
<svg xmlns="http://www.w3.org/2000/svg" xmlns:xlink="http://www.w3.org/1999/xlink" width="50px" height="50px" viewBox="0 0 50 50" version="1.1" fill="#000000">
  <g id="surface77485">
    <path style=" stroke:none;fill-rule:nonzero;fill:#000000;fill-opacity:1;" d="M 16 6 C 13.789062 6 12 7.789062 12 10 C 12 12.210938 13.789062 14 16 14 C 18.210938 14 20 12.210938 20 10 C 20 7.789062 18.210938 6 16 6 Z M 30 11 C 27.789062 11 26 12.789062 26 15 C 26 17.210938 27.789062 19 30 19 C 32.210938 19 34 17.210938 34 15 C 34 12.789062 32.210938 11 30 11 Z M 12 15 C 10.894531 15 9.882812 15.609375 9.359375 16.578125 L 4.539062 24.28125 L 4.53125 24.296875 C 4.1875 24.796875 4 25.390625 4 26 L 4 33.621094 L 0.335938 39.894531 C 0.117188 40.222656 0 40.605469 0 41 C 0 42.105469 0.894531 43 2 43 C 2.730469 43 3.402344 42.601562 3.75 41.957031 L 3.78125 41.90625 C 3.785156 41.902344 3.785156 41.902344 3.789062 41.898438 L 7.675781 35.097656 L 7.679688 35.082031 C 7.84375 34.828125 7.949219 34.535156 7.984375 34.234375 L 8.875 28.78125 L 13.792969 33.457031 L 16.078125 41.539062 C 16.316406 42.402344 17.105469 43 18 43 C 19.105469 43 20 42.105469 20 41 C 20 40.800781 19.96875 40.605469 19.910156 40.417969 L 19.914062 40.417969 L 17.964844 32.625 C 17.953125 32.558594 17.933594 32.492188 17.914062 32.425781 C 17.816406 32.097656 17.636719 31.800781 17.390625 31.5625 L 12.144531 25.582031 L 14.175781 21.78125 L 16.4375 25.953125 C 16.78125 26.597656 17.457031 27 18.191406 27 L 23 27 C 24.105469 27 25 26.105469 25 25 C 25 23.894531 24.105469 23 23 23 L 19.039062 23 L 16.910156 17.40625 C 16.902344 17.382812 16.890625 17.359375 16.882812 17.332031 L 16.878906 17.328125 C 16.679688 16.761719 16.230469 16.316406 15.667969 16.117188 L 15.648438 16.097656 L 13.019531 15.175781 L 13.011719 15.179688 C 12.6875 15.0625 12.34375 15 12 15 Z M 37 18 C 36.65625 18 36.316406 18.0625 35.996094 18.175781 L 35.984375 18.171875 L 33.355469 19.097656 L 33.332031 19.117188 C 32.753906 19.324219 32.300781 19.785156 32.105469 20.367188 L 29.960938 25.746094 L 25.433594 27.082031 C 25.421875 27.085938 25.40625 27.089844 25.394531 27.09375 L 25.386719 27.097656 C 24.558594 27.363281 24 28.132812 24 29 C 24 30.105469 24.894531 31 26 31 C 26.269531 31 26.53125 30.945312 26.78125 30.84375 L 33.035156 28.730469 L 34.828125 24.78125 L 37.859375 27.578125 L 32.777344 32.417969 L 32.777344 32.421875 C 32.328125 32.769531 32.046875 33.292969 32.003906 33.859375 L 30.15625 40.226562 C 30.097656 40.371094 30.054688 40.523438 30.027344 40.679688 L 30.023438 40.691406 L 30.027344 40.691406 C 30.007812 40.792969 30 40.898438 30 41 C 30 42.105469 30.894531 43 32 43 C 33.003906 43 33.855469 42.25 33.980469 41.25 L 35.90625 35.175781 L 41.300781 30.796875 L 40.089844 35.417969 C 40.03125 35.605469 40 35.800781 40 36 C 40 36.652344 40.320312 37.261719 40.855469 37.636719 L 46.679688 42.5 C 47.042969 42.820312 47.511719 43 48 43 C 49.105469 43 50 42.105469 50 41 C 50 40.410156 49.738281 39.851562 49.285156 39.46875 L 49.292969 39.464844 L 44.472656 35.617188 L 45.96875 28.484375 L 45.964844 28.460938 C 45.988281 28.308594 46 28.15625 46 28 C 46 27.117188 45.609375 26.277344 44.933594 25.707031 L 44.921875 25.6875 L 39.25 19.015625 L 39.246094 19.011719 C 38.675781 18.367188 37.859375 18 37 18 Z M 37 18 "/>
  </g>
</svg>
